<svg width="1250" height="1250" viewBox="0 0 1250 1250" fill="none" xmlns="http://www.w3.org/2000/svg">
<path d="M1039.25 316.294C1043.35 305.235 1058.99 305.235 1063.08 316.294L1086.88 380.611C1088.17 384.088 1090.91 386.83 1094.39 388.116L1158.71 411.916C1169.77 416.008 1169.77 431.65 1158.71 435.742L1094.39 459.541C1090.91 460.828 1088.17 463.569 1086.88 467.046L1063.08 531.363C1058.99 542.422 1043.35 542.422 1039.25 531.363L1015.45 467.046C1014.17 463.569 1011.42 460.828 1007.95 459.541L943.628 435.742C932.568 431.65 932.568 416.008 943.628 411.916L1007.95 388.116C1011.42 386.83 1014.17 384.088 1015.45 380.611L1039.25 316.294Z" fill="white"/>
<path d="M628.237 541.866C628.237 552.389 619.706 560.92 609.182 560.92C598.659 560.92 590.128 552.389 590.128 541.866C590.128 531.342 598.659 522.812 609.182 522.812C619.706 522.812 628.237 531.342 628.237 541.866Z" fill="white"/>
<path d="M723.511 649.838C734.035 649.838 742.566 641.308 742.566 630.784C742.566 620.261 734.035 611.73 723.511 611.73C712.987 611.73 704.456 620.261 704.456 630.784C704.456 641.308 712.987 649.838 723.511 649.838Z" fill="white"/>
<path fill-rule="evenodd" clip-rule="evenodd" d="M897.62 726.224C969.96 712.685 1027.56 694.485 1064.64 673.393C1099.78 653.399 1115.27 631.503 1109.93 609.656C1108.73 604.744 1103.86 601.931 1098.8 602.092L1013.13 604.819C1003.99 605.11 998.09 615.394 996.023 624.307C993.085 636.981 981.185 649.463 960.704 661.114C946.218 669.355 927.706 677.028 905.736 683.96C907.038 672.767 907.707 661.381 907.707 649.839C907.707 488.482 776.897 357.677 615.534 357.677C509.395 357.677 416.475 414.271 365.305 498.927C285.252 509.365 217.018 525.055 167.462 544.465C115.094 564.977 85.6248 588.844 82.3135 613.427C79.0021 638.01 101.977 662.351 148.699 683.76C193.21 704.156 257.62 721.133 335.368 733.005C371.188 853.847 483.066 942 615.534 942C750.468 942 864.037 850.534 897.62 726.224ZM811.016 705.686C816.076 687.941 818.785 669.206 818.785 649.839C818.785 537.591 727.786 446.596 615.534 446.596C551.348 446.596 494.111 476.347 456.862 522.812H545.666C556.19 522.812 564.721 531.342 564.721 541.866C564.721 552.389 556.19 560.92 545.666 560.92H432.716C424.973 576.807 419.241 593.855 415.85 611.73H659.995C670.519 611.73 679.05 620.261 679.05 630.784C679.05 641.308 670.519 649.838 659.995 649.838H412.283C412.283 671.315 415.614 692.014 421.788 711.445C481.444 718.948 547.47 722.503 613.938 721.751C683.985 720.958 751.933 715.41 811.016 705.686ZM797.303 740.879C740.97 747.071 680.578 750.635 618.92 751.333C556.584 752.038 494.55 749.796 435.779 744.786C469.875 809.197 537.579 853.081 615.534 853.081C695.055 853.081 763.91 807.416 797.303 740.879ZM326.793 694.76C295.654 687.4 269.049 678.776 248.106 669.18C211.757 652.523 193.882 633.586 196.458 614.46C199.034 595.335 221.961 576.766 262.704 560.808C285.655 551.819 313.755 543.855 345.878 537.168C331.373 571.84 323.361 609.904 323.361 649.839C323.361 665.115 324.533 680.117 326.793 694.76Z" fill="white"/>
</svg>
